<?xml version="1.0" standalone="no"?>
<!DOCTYPE svg PUBLIC "-//W3C//DTD SVG 20010904//EN"
 "http://www.w3.org/TR/2001/REC-SVG-20010904/DTD/svg10.dtd">
<svg version="1.0" xmlns="http://www.w3.org/2000/svg"
 width="512.000000pt" height="512.000000pt" viewBox="0 0 512.000000 512.000000"
 preserveAspectRatio="xMidYMid meet">
<metadata>
Created by potrace 1.14, written by Peter Selinger 2001-2017
</metadata>
<g transform="translate(0.000000,512.000000) scale(0.100000,-0.100000)"
fill="#000000" stroke="none">
<path d="M590 3995 l0 -35 69 0 c71 0 120 -12 133 -33 4 -7 8 -289 8 -628 0
-539 -2 -618 -15 -629 -12 -10 -114 -26 -182 -29 -8 -1 -13 -14 -13 -31 l0
-30 612 2 613 3 42 255 c23 140 42 263 42 273 1 12 -7 17 -23 17 -22 0 -26 -6
-36 -57 -48 -251 -103 -347 -228 -393 -114 -43 -562 -55 -600 -16 -15 15 -17
53 -20 327 l-3 311 153 -3 c131 -4 158 -7 187 -24 51 -30 73 -66 78 -127 7
-88 11 -98 38 -98 l25 0 0 281 0 280 -27 -3 c-27 -3 -28 -5 -34 -76 -10 -137
-53 -163 -267 -166 l-147 -1 0 283 c0 272 1 284 20 299 17 12 59 14 265 10
291 -4 326 -12 399 -85 51 -51 80 -124 102 -254 10 -62 13 -68 35 -68 30 0 30
-12 -4 260 l-27 215 -598 3 -597 2 0 -35z"/>
<path d="M2120 3181 l0 -28 107 -7 c133 -9 168 -22 177 -66 10 -51 7 -986 -4
-1067 -15 -114 -78 -214 -153 -242 -40 -16 -106 -13 -159 5 -44 14 -128 77
-128 94 0 5 15 12 32 16 49 10 76 32 88 70 35 105 -66 195 -164 149 -50 -24
-70 -65 -63 -131 22 -215 305 -331 531 -217 69 35 141 106 173 172 l28 56 3
560 c3 612 1 595 61 595 14 0 43 3 64 6 33 6 37 10 37 35 l0 29 -315 0 -315 0
0 -29z"/>
<path d="M2860 2426 c0 -22 4 -23 76 -29 43 -3 86 -12 100 -22 l24 -15 0 -559
c0 -558 0 -558 -22 -586 -25 -32 -65 -50 -130 -60 -42 -6 -48 -10 -48 -31 l0
-24 230 0 230 0 0 24 c0 21 -6 24 -65 34 -80 13 -121 41 -135 90 -12 45 -14
1140 -1 1127 4 -6 115 -287 246 -625 130 -338 242 -623 247 -633 5 -11 18 -17
29 -15 17 2 63 112 269 641 136 351 251 641 254 644 3 4 6 -261 6 -588 0 -467
-3 -599 -13 -613 -15 -21 -74 -35 -144 -36 -50 0 -53 -2 -53 -25 l0 -25 285 0
285 0 0 24 c0 22 -4 23 -81 29 -131 10 -119 -55 -119 622 0 677 -12 612 119
622 77 6 81 7 81 30 l0 23 -192 -2 -193 -3 -222 -570 c-122 -314 -225 -569
-229 -568 -4 1 -105 253 -224 561 -120 308 -220 564 -224 571 -5 7 -66 11
-197 11 l-189 0 0 -24z"/>
</g>
</svg>
